<svg viewBox="0 0 16 16" xmlns="http://www.w3.org/2000/svg" xmlns:xlink="http://www.w3.org/1999/xlink" width="16.000000" height="16.000000" fill="none">
	<rect id="Files" width="16.000000" height="16.000000" x="0.000000" y="0.000000" />
	<g id="Files">
		<path id="Vector" d="M6.49969 0.833984C6.32288 0.833984 6.15331 0.904222 6.02829 1.02925L2.52829 4.52925C2.40326 4.65427 2.33302 4.82384 2.33302 5.00065L2.33301 12.5006C2.333 13.9734 3.52691 15.1673 4.99967 15.1673L10.9997 15.1673C12.4725 15.1673 13.6664 13.9734 13.6664 12.5007L13.6664 3.50065C13.6664 2.02789 12.4725 0.833984 10.9997 0.833984L6.49969 0.833984ZM3.66634 12.5006L3.66636 6.16732L6.99967 6.16732C7.36786 6.16732 7.66634 5.86884 7.66634 5.50065L7.66634 2.16732L10.9997 2.16732C11.7361 2.16732 12.333 2.76427 12.333 3.50065L12.333 12.5007C12.333 13.237 11.7361 13.834 10.9997 13.834L4.99967 13.834C4.26329 13.834 3.66634 13.237 3.66634 12.5006ZM6.333 4.83398L6.333 2.61015L4.10917 4.83398L6.333 4.83398ZM5.33301 9.00065C5.33301 8.63246 5.63148 8.33398 5.99967 8.33398L9.99967 8.33398C10.3679 8.33398 10.6663 8.63246 10.6663 9.00065C10.6663 9.36884 10.3679 9.66732 9.99967 9.66732L5.99967 9.66732C5.63148 9.66732 5.33301 9.36884 5.33301 9.00065ZM5.33301 11.5007C5.33301 11.1325 5.63148 10.834 5.99967 10.834L7.99967 10.834C8.36786 10.834 8.66634 11.1325 8.66634 11.5007C8.66634 11.8688 8.36786 12.1673 7.99967 12.1673L5.99967 12.1673C5.63148 12.1673 5.33301 11.8688 5.33301 11.5007Z" fill="rgb(65.6094,68.8538,80.75)" fill-rule="evenodd" />
	</g>
</svg>
