<svg viewBox="0 0 20 20" xmlns="http://www.w3.org/2000/svg" xmlns:xlink="http://www.w3.org/1999/xlink" width="20.000000" height="20.000000" fill="none">
	<rect id="Profile" width="20.000000" height="20.000000" x="0.000000" y="0.000000" />
	<g id="Person">
		<path id="Vector" d="M5.41686 5.62533C5.41686 3.09402 7.46889 1.04199 10.0002 1.04199C12.5315 1.04199 14.5835 3.09402 14.5835 5.62533C14.5835 8.15663 12.5315 10.2087 10.0002 10.2087C7.46889 10.2087 5.41686 8.15663 5.41686 5.62533ZM10.0002 2.70866C8.38936 2.70866 7.08353 4.01449 7.08353 5.62533C7.08353 7.23616 8.38936 8.54199 10.0002 8.54199C11.611 8.54199 12.9169 7.23616 12.9169 5.62533C12.9169 4.01449 11.611 2.70866 10.0002 2.70866ZM5.08691 11.042C3.99428 11.042 2.86301 11.5887 2.35639 12.7058C2.0654 13.3474 1.75315 14.2099 1.676 15.1088C1.60575 15.9273 1.94595 16.7819 2.71283 17.2583C3.84078 17.959 6.13386 18.9587 10.0002 18.9587C13.8665 18.9587 16.1596 17.959 17.2876 17.2583C18.0544 16.7819 18.3946 15.9273 18.3244 15.1088C18.2472 14.2099 17.935 13.3474 17.644 12.7058C17.1374 11.5887 16.0061 11.042 14.9135 11.042L5.08691 11.042ZM3.87424 13.3942C4.05756 12.99 4.50914 12.7087 5.08691 12.7087L14.9135 12.7087C15.4912 12.7087 15.9428 12.99 16.1261 13.3942C16.3799 13.9536 16.6096 14.6196 16.6638 15.2513C16.6881 15.5337 16.5703 15.7418 16.4081 15.8426C15.5505 16.3753 13.5632 17.292 10.0002 17.292C6.43719 17.292 4.44993 16.3753 3.5923 15.8426C3.43006 15.7418 3.31233 15.5337 3.33656 15.2513C3.39078 14.6196 3.62053 13.9536 3.87424 13.3942Z" fill="rgb(65.6094,68.8538,80.75)" fill-rule="evenodd" />
	</g>
</svg>
